<svg id="Iconly_Bold_Graph" data-name="Iconly/Bold/Graph" xmlns="http://www.w3.org/2000/svg" width="70" height="70" viewBox="0 0 70 70">
  <g id="Graph" transform="translate(5.833 5.833)">
    <path id="Graph-2" data-name="Graph" d="M3.174,45.25A23.925,23.925,0,0,1,.189,36.1,17.3,17.3,0,0,1,0,33.225,25.358,25.358,0,0,1,20.289,8.631a3.209,3.209,0,0,1,3.486,1.738,3.222,3.222,0,0,1,.37.751c.4,6.116.819,12.128,1.215,18.141a5.4,5.4,0,0,0,.291,1.838,2.984,2.984,0,0,0,2.932,1.84L48,31.7l.134.05a3.164,3.164,0,0,1,2.2.94,3.057,3.057,0,0,1,.885,2.2,25.29,25.29,0,0,1-20.06,22.861,26.1,26.1,0,0,1-5.508.588A25.706,25.706,0,0,1,3.174,45.25ZM31.71,26.515a2.566,2.566,0,0,1-.856-1.919l-1.507-22V2.231A2.313,2.313,0,0,1,30.12.612,2.4,2.4,0,0,1,31.831,0,27.481,27.481,0,0,1,58.325,23.013a.87.87,0,0,1,0,.234,2.293,2.293,0,0,1-.575,1.677,2.371,2.371,0,0,1-1.62.785l-22.4,1.478q-.119.011-.238.01A2.669,2.669,0,0,1,31.71,26.515Z" transform="translate(0)"/>
  </g>
</svg>
