<?xml version="1.0"?>
<svg xmlns="http://www.w3.org/2000/svg" viewBox="0 0 80 80">
    <path style="line-height:normal;text-indent:0;text-align:start;text-decoration-line:none;text-decoration-style:solid;text-decoration-color:#000;text-transform:none;block-progression:tb;isolation:auto;mix-blend-mode:normal" d="M 38.726562 9 C 33.88554 9 29.535633 11.649371 26.378906 14.224609 C 23.222179 16.799848 21.210937 19.384766 21.210938 19.384766 L 20.308594 20.542969 L 21.716797 20.958984 C 21.716797 20.958984 22.266975 21.109198 22.919922 21.779297 C 23.572869 22.449395 24.273437 23.588075 24.273438 25.751953 C 24.273438 28.552371 24.701586 30.811975 24.916016 31.769531 C 24.359211 32.278599 24 32.995079 24 33.800781 C 24 34.450638 24.193614 35.00244 24.353516 35.546875 C 24.433466 35.819092 24.510374 36.073356 24.5625 36.265625 C 24.61463 36.457894 24.625 36.643858 24.625 36.5 C 24.625 37.860791 25.765491 38.921144 27.107422 38.96875 C 27.293334 42.845683 29.15905 46.267297 32 48.521484 L 32 52.251953 C 30.556671 52.688899 27.096375 53.80654 23.572266 55.470703 C 21.274343 56.555833 18.960465 57.863796 17.160156 59.414062 C 15.359847 60.964329 14 62.821429 14 65 L 14 71 L 49.634766 71 C 52.237039 76.319547 57.68812 80 64 80 C 72.824711 80 80 72.824711 80 64 C 80 55.175289 72.824711 48 64 48 C 59.15573 48 54.818932 50.171719 51.882812 53.582031 C 50.040587 52.895974 48.682005 52.461515 48 52.259766 L 48 48.523438 C 50.840936 46.268284 52.706661 42.845831 52.892578 38.96875 C 54.234864 38.92111 55.373047 37.860004 55.373047 36.5 C 55.373047 36.643858 55.38538 36.45789 55.4375 36.265625 C 55.48963 36.073356 55.566533 35.819092 55.646484 35.546875 C 55.806386 35.00244 55.998047 34.450638 55.998047 33.800781 C 55.998872 32.98214 55.628346 32.256255 55.056641 31.746094 C 55.240472 30.693073 56 26.177353 56 23 C 56 19.407364 54.65612 16.831503 52.841797 15.236328 C 51.214855 13.8059 49.299035 13.229012 47.603516 13.107422 C 47.331339 12.67697 46.848064 11.996623 45.841797 11.210938 C 44.404272 10.088527 42.089138 9 38.726562 9 z M 38.726562 11 C 41.66599 11 43.487353 11.911471 44.611328 12.789062 C 45.735303 13.666654 46.103516 14.441406 46.103516 14.441406 L 46.378906 15 L 47 15 C 48.332508 15 50.123557 15.509207 51.521484 16.738281 C 52.919411 17.967356 54 19.889636 54 23 C 54 25.790852 53.334261 29.861149 53.142578 31.001953 C 53.136589 31.001916 53.130997 31 53.125 31 C 53.040922 31 53.05559 31.020743 53 31.027344 L 53 28 C 53 24.57812 51.601408 22.275725 50.195312 20.914062 C 48.789218 19.5524 47.318359 19.052734 47.318359 19.052734 L 46.746094 18.859375 L 46.308594 19.277344 C 46.308594 19.277344 45.681316 19.894668 44.160156 20.589844 C 42.638997 21.285019 40.289961 22 37 22 C 35.200387 22 32.826634 22.636647 30.769531 24.074219 C 28.717851 25.508001 27.012899 27.852966 27.003906 31.029297 C 26.947286 31.022296 26.961862 31 26.875 31 C 26.851013 31 26.828558 31.007225 26.804688 31.007812 C 26.60088 30.041314 26.273436 28.158882 26.273438 25.751953 C 26.273438 23.131832 25.337568 21.394667 24.353516 20.384766 C 23.938597 19.958948 23.842511 20.029311 23.480469 19.818359 C 24.170718 19.004045 25.455427 17.561248 27.644531 15.775391 C 30.616804 13.350629 34.631585 11 38.726562 11 z M 46.998047 21.15625 C 47.240955 21.25027 47.873808 21.448146 48.804688 22.349609 C 49.898592 23.408947 51 25.10588 51 28 L 51 34.304688 L 52.505859 33.423828 C 52.763271 33.273148 53.000659 33.139974 53.167969 33.054688 C 53.189159 33.043886 53.194211 33.042323 53.212891 33.033203 C 53.67253 33.079553 53.99845 33.398087 53.998047 33.798828 L 53.998047 33.800781 C 53.998047 33.875921 53.879161 34.462857 53.726562 34.982422 C 53.650262 35.242205 53.570921 35.502206 53.505859 35.742188 C 53.440799 35.982169 53.373047 36.146642 53.373047 36.5 C 53.373047 36.765198 53.156381 37 52.8125 37 L 51 37 L 51 38.367188 C 51 43.789366 47.089008 48.269071 41.941406 49.1875 L 41.658203 49.236328 L 41.443359 49.431641 C 41.05178 49.78762 40.558016 50 40 50 C 39.441984 50 38.948039 49.788155 38.556641 49.431641 L 38.34375 49.236328 L 38.058594 49.185547 C 32.911121 48.268058 29 43.789367 29 38.367188 L 29 37 L 27.1875 37 C 26.845222 37 26.625 36.764393 26.625 36.5 C 26.625 36.146642 26.55725 35.982169 26.492188 35.742188 C 26.427128 35.502206 26.347783 35.242205 26.271484 34.982422 C 26.118886 34.462857 26 33.875925 26 33.800781 C 26 33.399535 26.3274 33.079612 26.787109 33.033203 C 26.805789 33.042303 26.810841 33.043886 26.832031 33.054688 C 26.999341 33.139978 27.236729 33.273148 27.494141 33.423828 L 29 34.304688 L 29 31.052734 C 29 28.556878 30.243166 26.882522 31.914062 25.714844 C 33.584959 24.547166 35.711613 24 37 24 C 40.581039 24 43.231096 23.214981 44.992188 22.410156 C 46.300865 21.812086 46.645356 21.446204 46.998047 21.15625 z M 34.5 33 A 1.5 1.5 0 0 0 33 34.5 A 1.5 1.5 0 0 0 34.5 36 A 1.5 1.5 0 0 0 36 34.5 A 1.5 1.5 0 0 0 34.5 33 z M 45.5 33 A 1.5 1.5 0 0 0 44 34.5 A 1.5 1.5 0 0 0 45.5 36 A 1.5 1.5 0 0 0 47 34.5 A 1.5 1.5 0 0 0 45.5 33 z M 34 49.822266 C 35.067809 50.38466 36.219942 50.812398 37.443359 51.058594 C 38.147243 51.620412 39.022065 52 40 52 C 40.973713 52 41.842622 51.620911 42.544922 51.064453 C 43.772571 50.818443 44.928862 50.390557 46 49.826172 L 46 55.685547 C 45.877204 55.930494 44.295038 59 40 59 C 35.704962 59 34.122796 55.930494 34 55.685547 L 34 49.822266 z M 64 50 C 71.743831 50 78 56.256169 78 64 C 78 71.743831 71.743831 78 64 78 C 56.256169 78 50 71.743831 50 64 C 50 56.256169 56.256169 50 64 50 z M 48 54.347656 C 48.668203 54.557196 49.584852 54.869828 50.623047 55.246094 C 48.970468 57.7637 48 60.768926 48 64 C 48 64.338052 48.030033 64.669053 48.050781 65.001953 A 1 1 0 0 0 48 65 A 1 1 0 0 0 47 66 A 1 1 0 0 0 48 67 A 1 1 0 0 0 48.285156 66.957031 C 48.416204 67.655085 48.591783 68.336871 48.810547 69 L 16 69 L 16 65 C 16 63.678571 16.890153 62.285669 18.464844 60.929688 C 20.039535 59.573704 22.225657 58.319167 24.427734 57.279297 C 27.453252 55.85058 30.392987 54.858893 32 54.353516 L 32 56.236328 L 32.105469 56.447266 C 32.105469 56.447266 34.466667 61 40 61 C 45.533333 61 47.894531 56.447266 47.894531 56.447266 L 48 56.236328 L 48 54.347656 z M 63 57 L 63 63 L 57 63 L 57 65 L 63 65 L 63 71 L 65 71 L 65 65 L 71 65 L 71 63 L 65 63 L 65 57 L 63 57 z M 20 65 A 1 1 0 0 0 19 66 A 1 1 0 0 0 20 67 A 1 1 0 0 0 21 66 A 1 1 0 0 0 20 65 z M 24 65 A 1 1 0 0 0 23 66 A 1 1 0 0 0 24 67 A 1 1 0 0 0 25 66 A 1 1 0 0 0 24 65 z M 28 65 A 1 1 0 0 0 27 66 A 1 1 0 0 0 28 67 A 1 1 0 0 0 29 66 A 1 1 0 0 0 28 65 z M 32 65 A 1 1 0 0 0 31 66 A 1 1 0 0 0 32 67 A 1 1 0 0 0 33 66 A 1 1 0 0 0 32 65 z M 36 65 A 1 1 0 0 0 35 66 A 1 1 0 0 0 36 67 A 1 1 0 0 0 37 66 A 1 1 0 0 0 36 65 z M 40 65 A 1 1 0 0 0 39 66 A 1 1 0 0 0 40 67 A 1 1 0 0 0 41 66 A 1 1 0 0 0 40 65 z M 44 65 A 1 1 0 0 0 43 66 A 1 1 0 0 0 44 67 A 1 1 0 0 0 45 66 A 1 1 0 0 0 44 65 z"/>
</svg>
