<svg id="Iconly_Bold_Camera" data-name="Iconly/Bold/Camera" xmlns="http://www.w3.org/2000/svg" width="40" height="40" viewBox="0 0 40 40">
  <g id="Camera" transform="translate(3.333 5)">
    <path id="Camera-2" data-name="Camera" d="M26.067,30H7.266A7.27,7.27,0,0,1,0,22.742v-9.89A7.27,7.27,0,0,1,7.266,5.594a.33.33,0,0,0,.318-.2l.1-.2L7.822,4.9c.435-.917.928-1.954,1.228-2.555A4.055,4.055,0,0,1,12.734,0h7.849a4.067,4.067,0,0,1,3.7,2.347c.262.524.66,1.366,1.046,2.18l.237.5.168.366a.376.376,0,0,0,.333.2,7.27,7.27,0,0,1,7.266,7.259v9.89A7.27,7.27,0,0,1,26.067,30Zm-9.4-19.329a6.536,6.536,0,0,0-4.65,1.932,6.445,6.445,0,0,0-1.9,4.611,6.54,6.54,0,0,0,6.551,6.543,6.493,6.493,0,0,0,4.617-1.914,6.526,6.526,0,0,0,.016-9.257A6.508,6.508,0,0,0,16.667,10.671Zm9.35-.4a1.507,1.507,0,1,0,1.518,1.515A1.509,1.509,0,0,0,26.016,10.272ZM16.667,21.26a4.038,4.038,0,0,1-4.05-4.045V17.2a3.9,3.9,0,0,1,1.167-2.83,4.049,4.049,0,1,1,2.883,6.892Z"/>
  </g>
</svg>
