<svg id="Iconly_Bold_Send" data-name="Iconly/Bold/Send" xmlns="http://www.w3.org/2000/svg" width="70" height="70" viewBox="0 0 70 70">
  <g id="Send" transform="translate(5.833 5.833)">
    <path id="Send-2" data-name="Send" d="M56.687,1.7A5.638,5.638,0,0,0,51.055.229L4.107,13.882A5.6,5.6,0,0,0,.071,18.318a6.572,6.572,0,0,0,2.924,6.133l14.68,9.022a3.8,3.8,0,0,0,4.695-.564L39.179,16a2.14,2.14,0,0,1,3.093,0,2.225,2.225,0,0,1,0,3.112L25.433,36.025a3.86,3.86,0,0,0-.563,4.721l8.97,14.827a5.572,5.572,0,0,0,4.844,2.76,6.061,6.061,0,0,0,.729-.029,5.686,5.686,0,0,0,4.756-4.052L58.087,7.364a5.729,5.729,0,0,0-1.4-5.667" transform="translate(0 0)"/>
  </g>
</svg>
