<svg xmlns="http://www.w3.org/2000/svg" width="69.472" height="55.116" viewBox="0 0 69.472 55.116">
    <path d="M36.994 16.1c8.713 0 15.8 6.5 15.8 14.511a13.064 13.064 0 0 1-1.132 5.311l9.225 8.468a34.58 34.58 0 0 0 10.835-13.782C66.249 17.877 52.761 8.849 36.963 8.849a40.165 40.165 0 0 0-12.574 2.024l6.822 6.272a16.718 16.718 0 0 1 5.783-1.045zM5.413 8.189l7.209 6.617 1.457 1.335A34.559 34.559 0 0 0 2.25 30.608C7.707 43.339 21.2 52.367 36.994 52.367a40.107 40.107 0 0 0 13.829-2.44l1.333 1.22 9.256 8.468 4.015-3.689L9.413 4.5zM22.87 24.221l4.9 4.492a7.644 7.644 0 0 0-.248 1.88c0 4.808 4.233 8.7 9.473 8.7a9.59 9.59 0 0 0 2.046-.23l4.9 4.492a16.68 16.68 0 0 1-6.946 1.536c-8.713 0-15.8-6.5-15.8-14.511a13.486 13.486 0 0 1 1.675-6.359zm13.612-2.253l9.953 9.143.062-.459c0-4.808-4.233-8.7-9.473-8.7z" transform="translate(-2.25 -4.5)"/>
</svg>
