<svg xmlns="http://www.w3.org/2000/svg" width="66" height="66" viewBox="0 0 66 66">
    <g>
        <path d="M18.27 51.651v-8.434a3.9 3.9 0 0 1 3.89-3.887h7.9a3.9 3.9 0 0 1 3.915 3.887v8.409A3.386 3.386 0 0 0 37.353 55h5.392a9.515 9.515 0 0 0 6.719-2.748 9.378 9.378 0 0 0 2.785-6.664V21.631a6.8 6.8 0 0 0-2.461-5.231L31.468 1.854a8.567 8.567 0 0 0-10.883.2L2.659 16.4A6.8 6.8 0 0 0 0 21.631v23.933A9.471 9.471 0 0 0 9.5 55h5.269a3.386 3.386 0 0 0 2.4-.972 3.337 3.337 0 0 0 1-2.377z" transform="translate(6.875 5.5)"/>
    </g>
</svg>
