<svg id="Iconly_Bold_Logout" data-name="Iconly/Bold/Logout" xmlns="http://www.w3.org/2000/svg" width="70" height="70" viewBox="0 0 70 70">
  <g id="Logout" transform="translate(5.833 5.833)">
    <path id="Logout-2" data-name="Logout" d="M13.175,58.333A13.072,13.072,0,0,1,0,45.384V12.978A13.1,13.1,0,0,1,13.206,0H27.686A13.067,13.067,0,0,1,40.835,12.949V26.922H23.029a2.246,2.246,0,1,0,0,4.491H40.835V45.355A13.1,13.1,0,0,1,27.628,58.333Zm35.067-19.1a2.255,2.255,0,0,1,0-3.179l4.667-4.638H40.835V26.922H52.91l-4.667-4.638a2.255,2.255,0,0,1,0-3.179,2.229,2.229,0,0,1,3.179-.029l8.518,8.487a2.235,2.235,0,0,1,.669,1.6,2.162,2.162,0,0,1-.669,1.575l-8.518,8.489a2.222,2.222,0,0,1-3.179,0Z" transform="translate(0)"/>
  </g>
</svg>
