<svg xmlns="http://www.w3.org/2000/svg" width="46.75" height="55" viewBox="0 0 46.75 55">
    <g>
        <path d="M12.853 55A12.919 12.919 0 0 1 0 42.048V12.4A12.356 12.356 0 0 1 12.278 0h14.541a1.26 1.26 0 0 1 1.252 1.265v8.855a9.187 9.187 0 0 0 9.1 9.185c1.163 0 2.183.007 3.086.017.705 0 1.322.01 1.869.01.389 0 .889 0 1.433-.012.629-.007 1.336-.015 1.97-.015a1.232 1.232 0 0 1 1.225 1.238v22.109A12.3 12.3 0 0 1 34.524 55zm.027-17.488a2.079 2.079 0 0 0 2.042 2.062h14.81a2.079 2.079 0 0 0 2.042-2.062 2.041 2.041 0 0 0-2.042-2.037h-14.81a2.041 2.041 0 0 0-2.042 2.036zm0-13.724a2.041 2.041 0 0 0 2.042 2.034h9.2a2.041 2.041 0 0 0 2.042-2.034 2.079 2.079 0 0 0-2.042-2.062h-9.2a2.079 2.079 0 0 0-2.042 2.061zm24.651-8.5a5.549 5.549 0 0 1-5.492-5.546v-7.25a1.3 1.3 0 0 1 2.24-.918c2.943 3.089 8.086 8.494 10.962 11.514a1.311 1.311 0 0 1-.936 2.218h-1.9c-1.724.003-3.495-.006-4.874-.018z"/>
    </g>
</svg>
