<svg xmlns="http://www.w3.org/2000/svg" width="70" height="60" viewBox="0 0 70 60">
    <g>
        <path d="M16.527 50C6.641 50 0 44.057 0 35.21V14.792C0 5.945 6.641 0 16.527 0h25.284c9.883 0 16.522 5.945 16.522 14.792V35.21c0 8.847-6.641 14.79-16.525 14.79zm21.192-23.126H41.6v2.756a2.213 2.213 0 0 0 4.373 0V25a2.052 2.052 0 0 0-2.187-1.874h-16.6a7.472 7.472 0 0 0-7.233-4.626c-4.184 0-7.586 2.916-7.586 6.5s3.4 6.5 7.586 6.5a7.474 7.474 0 0 0 7.227-4.63h6.16v2.76a2.214 2.214 0 0 0 4.376 0v-2.756zM16.74 25a3.015 3.015 0 0 1 3.213-2.754A3.016 3.016 0 0 1 23.168 25a3.014 3.014 0 0 1-3.216 2.752A3.013 3.013 0 0 1 16.74 25z" transform="translate(5.832 4.998)"/>
    </g>
</svg>
