<svg xmlns="http://www.w3.org/2000/svg" width="66" height="66" viewBox="0 0 66 66">
    <g>
        <path d="M28.037 55h-3.824a5.682 5.682 0 0 1-5.843-5.638 5.236 5.236 0 0 0-5.173-5 4.346 4.346 0 0 0-2.473.634 5.949 5.949 0 0 1-2.98.824 5.835 5.835 0 0 1-5-2.859L.8 39.654a5.51 5.51 0 0 1-.057-5.638A5.8 5.8 0 0 1 3 31.846a4.545 4.545 0 0 0 1.772-1.76 4.9 4.9 0 0 0 .522-3.754 5.052 5.052 0 0 0-2.348-3.121 5.624 5.624 0 0 1-2.087-7.784l1.883-3.245a5.837 5.837 0 0 1 7.925-2.089 5.209 5.209 0 0 0 2.467.615 5.387 5.387 0 0 0 4.587-2.514 4.231 4.231 0 0 0 .648-2.421 4.918 4.918 0 0 1 .787-2.913A6.057 6.057 0 0 1 24.129 0h3.962a5.923 5.923 0 0 1 5 2.861 4.9 4.9 0 0 1 .757 2.913 4.247 4.247 0 0 0 .652 2.421 5.4 5.4 0 0 0 4.6 2.514 5.3 5.3 0 0 0 2.485-.615 5.8 5.8 0 0 1 7.9 2.089l1.881 3.245a5.575 5.575 0 0 1-2.079 7.784 5.031 5.031 0 0 0-2.347 3.129 4.869 4.869 0 0 0 .547 3.746 4.319 4.319 0 0 0 1.742 1.76 6.343 6.343 0 0 1 2.271 2.169 5.586 5.586 0 0 1-.054 5.638l-1.968 3.3a5.771 5.771 0 0 1-7.955 2.034 4.457 4.457 0 0 0-2.473-.634 5.223 5.223 0 0 0-5.2 5A5.668 5.668 0 0 1 28.037 55zm-1.883-35.254a7.892 7.892 0 0 0-7.982 7.781 7.6 7.6 0 0 0 2.336 5.5 8.058 8.058 0 0 0 5.646 2.259 7.759 7.759 0 0 0 5.6-13.266 7.912 7.912 0 0 0-5.6-2.274z" transform="translate(6.879 5.5)"/>
    </g>
</svg>
