<svg id="Iconly_Bold_Ticket" data-name="Iconly/Bold/Ticket" xmlns="http://www.w3.org/2000/svg" width="70" height="70" viewBox="0 0 70 70">
  <g id="Ticket" transform="translate(5.833 11.667)">
    <path id="Ticket-2" data-name="Ticket" d="M47.305,46.667h-9.2A1.7,1.7,0,0,1,36.388,45V39.076a2.064,2.064,0,0,0-2.116-2.055,2.089,2.089,0,0,0-2.116,2.055V45a1.7,1.7,0,0,1-1.717,1.672H11.03A10.888,10.888,0,0,1,0,35.952v-7.03a2.02,2.02,0,0,1,2.155-1.929A3.742,3.742,0,0,0,5.9,23.321a3.536,3.536,0,0,0-3.78-3.426,2.141,2.141,0,0,1-1.5-.6A2.013,2.013,0,0,1,0,17.84v-7.1A10.915,10.915,0,0,1,11.056,0H30.439a1.7,1.7,0,0,1,1.717,1.672V8.686a2.114,2.114,0,0,0,2.116,2.055,2.089,2.089,0,0,0,2.116-2.055V1.672A1.7,1.7,0,0,1,38.11,0h9.2A10.887,10.887,0,0,1,58.333,10.715v6.9a2.025,2.025,0,0,1-.62,1.454,2.14,2.14,0,0,1-1.5.6,3.661,3.661,0,1,0-.039,7.318,2.02,2.02,0,0,1,2.155,1.929v7.03A10.887,10.887,0,0,1,47.305,46.667ZM34.272,16.635a2.113,2.113,0,0,0-2.116,2.053V29.649A2.114,2.114,0,0,0,34.272,31.7a2.089,2.089,0,0,0,2.116-2.055V18.687A2.087,2.087,0,0,0,34.272,16.635Z"/>
  </g>
</svg>
