<svg id="Iconly_Light_Paper" data-name="Iconly/Light/Paper" xmlns="http://www.w3.org/2000/svg" width="170" height="170" viewBox="0 0 170 170">
  <g id="Paper" transform="translate(30.103 19.479)">
    <path id="Stroke_1" data-name="Stroke 1" d="M74.289,0H27.164A27.06,27.06,0,0,0,.007,26.414V102.3A27.118,27.118,0,0,0,26.512,130c.22,0,.432.007.652,0H83.753a27.53,27.53,0,0,0,26.414-27.7V37.372Z" transform="translate(0 0.083)" fill="none" stroke="#000" stroke-linecap="round" stroke-linejoin="round" stroke-miterlimit="10" stroke-width="1.5"/>
    <path id="Stroke_3" data-name="Stroke 3" d="M0,0V20.605a18.235,18.235,0,0,0,18.19,18.24H37.7" transform="translate(72.429)" fill="none" stroke="#000" stroke-linecap="round" stroke-linejoin="round" stroke-miterlimit="10" stroke-width="1.5"/>
    <path id="Stroke_5" data-name="Stroke 5" d="M38.25.5H0" transform="translate(32.854 88.81)" fill="none" stroke="#000" stroke-linecap="round" stroke-linejoin="round" stroke-miterlimit="10" stroke-width="1.5"/>
    <path id="Stroke_7" data-name="Stroke 7" d="M23.772.5H0" transform="translate(32.848 62.23)" fill="none" stroke="#000" stroke-linecap="round" stroke-linejoin="round" stroke-miterlimit="10" stroke-width="1.5"/>
  </g>
</svg>
