<svg xmlns="http://www.w3.org/2000/svg" width="56" height="45" viewBox="0 0 56 45">
  <g id="Polygon_1" data-name="Polygon 1" fill="#ffde03">
    <path d="M 43.40000152587891 44.49999618530273 L 12.60000038146973 44.49999618530273 C 10.20514965057373 44.49999618530273 8.081029891967773 43.25015640258789 6.917980194091797 41.15667724609375 C 5.754940032958984 39.06319427490234 5.815929889678955 36.59940719604492 7.081140041351318 34.56603622436523 L 22.48113059997559 9.816036224365234 C 23.67571067810059 7.896175861358643 25.73884010314941 6.749996185302734 28 6.749996185302734 C 30.26115989685059 6.749996185302734 32.32429122924805 7.896175861358643 33.51885986328125 9.816036224365234 L 48.91886901855469 34.56603622436523 C 50.18407821655273 36.59940719604492 50.24507141113281 39.06319427490234 49.08203125 41.15667724609375 C 47.91897964477539 43.25015640258789 45.79486083984375 44.49999618530273 43.40000152587891 44.49999618530273 Z" stroke="none"/>
    <path d="M 28 7.250007629394531 C 25.91276931762695 7.250007629394531 24.00834083557129 8.308017730712891 22.90565872192383 10.08018493652344 L 7.505661010742188 34.83018493652344 C 6.3377685546875 36.70714569091797 6.281471252441406 38.98140716552734 7.355049133300781 40.91384506225586 C 8.428630828857422 42.84629440307617 10.38935852050781 43.99999618530273 12.59999847412109 43.99999618530273 L 43.40000152587891 43.99999618530273 C 45.61063003540039 43.99999618530273 47.57135772705078 42.84629440307617 48.64493942260742 40.91385650634766 C 49.71852111816406 38.98141479492188 49.6622200012207 36.70714569091797 48.49433135986328 34.83018493652344 L 33.09432983398438 10.08018493652344 C 31.99164962768555 8.308017730712891 30.08723068237305 7.250007629394531 28 7.250007629394531 M 27.99999809265137 6.250003814697266 C 30.2868595123291 6.250003814697266 32.57372283935547 7.350631713867188 33.94338989257812 9.551887512207031 L 49.34339141845703 34.30188751220703 C 52.24470138549805 38.96470642089844 48.89176177978516 44.99999618530273 43.40000152587891 44.99999618530273 L 12.59999847412109 44.99999618530273 C 7.108238220214844 44.99999618530273 3.755290985107422 38.96470642089844 6.656600952148438 34.30188751220703 L 22.05659866333008 9.551887512207031 C 23.42627334594727 7.350631713867188 25.71313667297363 6.250003814697266 27.99999809265137 6.250003814697266 Z" stroke="none" fill="#707070"/>
  </g>
</svg>
